<?xml version="1.0" standalone="no"?>
<!DOCTYPE svg PUBLIC "-//W3C//DTD SVG 20010904//EN"
 "http://www.w3.org/TR/2001/REC-SVG-20010904/DTD/svg10.dtd">
<svg version="1.0" xmlns="http://www.w3.org/2000/svg"
 width="779.000000pt" height="779.000000pt" viewBox="0 0 779.000000 779.000000"
 preserveAspectRatio="xMidYMid meet">
<metadata>
Created by potrace 1.14, written by Peter Selinger 2001-2017
</metadata>
<g transform="translate(0.000000,779.000000) scale(0.100000,-0.100000)"
fill="#000000" stroke="none">
<path d="M5984 6990 c-12 -5 -24 -16 -28 -26 -10 -26 23 -735 36 -764 6 -14
87 -212 179 -440 157 -384 168 -416 152 -428 -10 -7 -85 -57 -168 -111 -157
-102 -319 -220 -520 -379 -66 -52 -126 -100 -133 -105 -10 -8 -12 -4 -7 19 23
126 14 381 -21 549 -55 265 -203 554 -398 778 -330 377 -860 641 -1456 724
-175 24 -559 24 -725 0 -738 -108 -1322 -462 -1696 -1026 -374 -564 -462
-1214 -248 -1827 41 -118 134 -310 199 -409 168 -256 399 -482 612 -595 68
-36 79 -45 62 -52 -10 -4 -91 -37 -179 -74 -297 -122 -665 -317 -963 -510
-223 -146 -313 -222 -444 -378 -179 -213 -231 -314 -232 -451 -1 -189 102
-271 344 -269 64 0 155 8 205 18 135 26 510 122 654 168 279 88 653 254 931
411 63 36 116 61 118 56 2 -5 -33 -168 -78 -364 -77 -338 -80 -356 -65 -385
19 -36 43 -50 88 -50 65 0 66 3 186 529 103 451 109 486 96 517 -15 36 -41 54
-79 54 -16 0 -106 -48 -219 -116 -585 -352 -1166 -563 -1771 -643 -168 -22
-200 -17 -222 35 -32 76 8 164 159 344 119 142 208 224 346 319 414 283 1308
703 1540 724 70 6 101 37 101 101 0 64 -16 72 -140 79 -126 7 -198 25 -307 77
-371 176 -695 606 -818 1085 -47 182 -58 294 -52 498 8 274 60 490 181 742
108 225 216 381 385 557 342 357 805 578 1386 660 140 20 542 17 690 -6 703
-107 1255 -481 1514 -1026 58 -123 86 -202 112 -323 60 -272 37 -580 -67 -908
-110 -348 -245 -594 -434 -793 -83 -87 -100 -111 -100 -136 0 -46 47 -90 97
-90 35 0 46 8 133 97 55 57 127 145 169 208 129 193 269 509 333 748 20 76 26
87 45 87 13 0 92 56 200 143 415 334 659 500 940 641 324 163 564 236 770 236
116 0 172 -20 198 -69 32 -63 -3 -135 -142 -287 -83 -93 -356 -349 -553 -520
-406 -354 -1290 -1072 -1820 -1479 -135 -103 -257 -199 -272 -213 -35 -33 -44
-73 -24 -113 9 -18 16 -43 16 -57 0 -24 228 -399 273 -450 31 -34 90 -30 128
7 16 17 29 40 29 54 0 14 -56 113 -131 232 -71 114 -131 211 -132 215 -1 4 88
76 198 161 532 407 1235 972 1556 1251 30 26 58 48 60 48 3 0 54 -123 113
-272 131 -330 116 -298 155 -325 50 -34 134 -48 209 -35 144 24 252 113 316
258 l18 42 -110 268 c-61 148 -131 321 -157 384 l-46 115 78 69 c310 276 444
462 444 618 1 115 -84 220 -208 258 -123 38 -333 23 -558 -41 -55 -15 -103
-25 -106 -21 -3 4 -12 23 -19 42 -7 19 -76 185 -152 368 -76 183 -138 338
-138 345 0 14 -480 561 -525 599 -37 31 -63 39 -91 28z m170 -331 c-40 -44
-74 -12 -74 68 l1 48 45 -49 c42 -46 44 -50 28 -67z m201 -192 l68 -78 -51
-49 c-59 -57 -137 -86 -201 -75 -64 11 -68 18 -75 141 l-6 111 45 5 c25 3 62
17 83 31 43 29 28 38 137 -86z m185 -289 c139 -331 250 -604 250 -613 0 -6
-17 -17 -37 -24 -21 -7 -98 -42 -170 -76 -73 -35 -135 -60 -137 -57 -5 9 -296
730 -296 734 0 2 29 5 64 6 35 1 87 10 115 21 53 20 151 86 151 102 0 5 4 9 9
9 5 0 28 -46 51 -102z m709 -1753 c45 -110 81 -205 81 -211 0 -24 -83 -104
-134 -129 -59 -29 -147 -42 -185 -28 -19 8 -36 41 -86 166 l-63 157 146 129
c81 71 150 126 153 122 4 -3 43 -96 88 -206z m167 -408 c20 -48 21 -55 8 -87
-21 -50 -79 -105 -136 -130 -53 -23 -143 -29 -175 -12 -16 9 -71 129 -62 136
2 1 35 7 73 13 84 14 179 59 225 107 19 20 37 33 40 30 3 -3 15 -28 27 -57z"/>
<path d="M4083 5452 c-66 -24 -124 -64 -173 -120 -47 -53 -90 -136 -90 -173 0
-33 32 -74 67 -86 49 -17 75 -2 111 62 84 153 202 197 299 112 33 -29 113
-173 113 -203 0 -6 11 -23 25 -38 19 -20 33 -26 67 -26 107 0 115 60 34 225
-61 124 -118 191 -200 232 -68 35 -178 42 -253 15z"/>
<path d="M1970 5393 c-102 -35 -187 -127 -255 -278 -41 -89 -44 -126 -13 -155
24 -22 86 -27 119 -9 12 6 38 48 59 94 65 141 138 201 215 175 31 -10 145
-121 145 -140 0 -4 13 -13 30 -20 59 -24 130 17 130 76 0 24 -14 50 -55 102
-116 149 -243 201 -375 155z"/>
<path d="M3430 4583 c-14 -2 -68 -13 -120 -23 -155 -31 -692 -100 -775 -100
-9 0 -27 -11 -40 -25 -19 -18 -25 -35 -25 -69 0 -57 27 -86 80 -86 l36 0 12
-82 c7 -46 31 -138 53 -204 139 -420 400 -585 694 -440 218 108 301 383 250
823 -25 209 -40 228 -165 206z m-12 -234 l3 -36 -83 -6 c-102 -6 -177 -33
-258 -93 -67 -49 -148 -151 -182 -231 -13 -29 -26 -53 -30 -53 -18 0 -119 353
-104 367 1 2 90 15 197 28 107 14 244 34 304 44 145 25 149 25 153 -20z m19
-296 c-16 -206 -102 -330 -252 -364 -97 -22 -150 19 -149 116 2 125 123 276
254 316 14 4 54 8 89 8 l64 1 -6 -77z"/>
</g>
</svg>
