<?xml version="1.0" encoding="UTF-8"?>
<svg id="Layer_2" data-name="Layer 2" xmlns="http://www.w3.org/2000/svg" viewBox="0 0 566.65 111.48">
  <defs>
    <style>
      .cls-1 {
        fill: #fff;
      }

      .cls-1, .cls-2 {
        stroke-width: 0px;
      }

      .cls-2 {
        fill: #231f20;
      }
    </style>
  </defs>
  <g id="Layer_2-2" data-name="Layer 2">
    <g id="comixcraftLogo">
      <g id="TextwithBg">
        <g id="Layer_6" data-name="Layer 6">
          <path class="cls-1" d="M242.58,39.76c9.71,15.03,19.42,30.07,29.13,45.1,2.14,3.31,5.02,3.76,7.07,0s2.32-10.56,0-14.14c-9.71-15.03-19.42-30.07-29.13-45.1-2.14-3.31-5.02-3.76-7.07,0s-2.32,10.56,0,14.14h0Z"/>
          <path class="cls-1" d="M232.4,34.92c4.26,14.73,11.8,28.25,22.46,39.29,3.1,3.21,5.91-.48,6.84-3.59,1.16-3.86,1.29-10.49-1.79-13.68-8.84-9.16-15.33-19.86-18.88-32.12-.93-3.21-3.7-6.67-6.84-3.59s-2.89,9.88-1.79,13.68h0Z"/>
          <path class="cls-1" d="M237.07,16.92c-2.05-1.13-.57-.76-.98-.16l-.4,5.83c.29-.34.61-.64.96-.91h-5.05c9.08,12.76,18.15,25.53,27.23,38.29,2.7,3.8,6.06-.99,6.84-3.59,1.33-4.43.92-9.86-1.79-13.68-9.08-12.76-18.15-25.53-27.23-38.29-1.46-2.05-3.52-1.39-5.05,0-8.13,7.43-7.19,26.31,2.81,31.8,6.37,3.49,8.61-16.02,2.66-19.29h0Z"/>
          <path class="cls-1" d="M272.42,53.03c6.93,0,6.99-20,0-20s-6.99,20,0,20h0Z"/>
          <path class="cls-1" d="M274.95,41.33l10.57-10.25c-2.28-4.56-4.56-9.12-6.84-13.68-2.15,7.91-6.04,14.61-11.58,20.64l5.05,17.27c7.25-10.93,14.49-21.87,21.74-32.8l-7.52-8.63c-.29,12.9-6.65,24.59-15.67,33.53-4.47,4.43-1.41,23.67,5.05,17.27,13.56-13.44,20.19-31.92,20.62-50.8.05-2.4-3.39-14.87-7.52-8.63-7.25,10.93-14.49,21.87-21.74,32.8-2.62,3.95-3.16,9.14-1.79,13.68.92,3.04,3.75,6.96,6.84,3.59,7.27-7.92,12.34-17.45,15.16-27.82,1.01-3.7,1.12-8.62-.78-12.12-1.4-2.58-3.69-3.86-6.06-1.56-3.52,3.42-7.05,6.83-10.57,10.25-4.51,4.38-1.5,23.62,5.05,17.27h0Z"/>
          <path class="cls-1" d="M282.04,11.53c-4.38,11.27-8.77,22.55-13.15,33.82-1.69,4.34-2.32,9.86,0,14.14,1.74,3.22,5.49,4.07,7.07,0,4.38-11.27,8.77-22.55,13.15-33.82,1.69-4.34,2.32-9.86,0-14.14-1.74-3.22-5.49-4.07-7.07,0h0Z"/>
          <path class="cls-1" d="M276.66,48.08c2.77-4.73,5.53-9.46,8.3-14.19,2.27-3.88,2.03-10.23,0-14.14s-5.04-3.47-7.07,0c-2.77,4.73-5.53,9.46-8.3,14.19-2.27,3.88-2.03,10.23,0,14.14s5.04,3.47,7.07,0h0Z"/>
          <path class="cls-1" d="M273.85,49.02l7.4-12.28c2.31-3.83,2.01-10.27,0-14.14s-5.01-3.42-7.07,0l-7.4,12.28c-2.31,3.83-2.01,10.27,0,14.14s5.01,3.42,7.07,0h0Z"/>
          <path class="cls-1" d="M280.41,28.07c.35,1.46.21,2.89-.06,4.34.25-1.35-.41.04.42-1.07.19-.26,1.42-1.85,2.21-2.48,2.63-2.09,5.68-2.62,8.9-1.91,1.5.33,3.04-1.97,3.54-2.93,1.05-2.02,1.51-4.82,1.46-7.07-.08-3.6-.79-9.08-5-10-5.97-1.3-12.14,1.9-15.79,6.57-5.47,7-6.37,16.22-4.33,24.64.75,3.08,3.91,6.85,6.84,3.59,3.1-3.45,2.8-9.54,1.79-13.68h.02Z"/>
          <path class="cls-1" d="M270.97,34.88c-18.36,11.56-31.36,29.91-36.74,50.89-.96,3.74-1.14,8.59.78,12.12,1.33,2.43,3.82,4.05,6.06,1.56,7.62-8.45,15.24-16.9,22.86-25.34h-5.05c7.33,11.08,16.98,20.3,28.26,27.31,4.66,2.89,6.44-7.46,6.33-9.64-.74-14.47-5.22-28.17-14.94-39.14-3-3.38-5.95.63-6.84,3.59-1.21,4.03-1.2,10.31,1.79,13.68,5.36,6.05,9.57,13.63,9.99,21.87l6.33-9.64c-10.48-6.5-19.08-15.01-25.88-25.29-1.3-1.97-3.68-1.52-5.05,0-7.62,8.45-15.24,16.9-22.86,25.34l6.84,13.68c4.46-17.42,15.58-32.14,30.76-41.7,5.73-3.61,3.34-23.06-2.66-19.29h.02Z"/>
          <path class="cls-1" d="M240.66,87.38c6.93,0,6.99-20,0-20s-6.99,20,0,20h0Z"/>
          <path class="cls-1" d="M243.39,54.65c-6.78,11.95-9.89,25.7-9.45,39.4.11,3.41,2.33,13.64,7.52,8.63,10.53-10.14,17.89-22.92,22.03-36.9l-7.85,2.02c6.59,12.18,14.73,23.38,24.45,33.26,3.12,3.17,5.9-.45,6.84-3.59,1.15-3.83,1.31-10.53-1.79-13.68-8.86-9.01-16.41-19.02-22.42-30.13-2.71-5.01-6.55-2.38-7.85,2.02-3.41,11.52-9.82,21.42-18.44,29.73,2.51,2.88,5.02,5.76,7.52,8.63-.29-9.11,2.03-17.35,6.52-25.26,2.2-3.87,2.11-10.26,0-14.14-1.99-3.68-5.04-3.57-7.07,0h0Z"/>
          <path class="cls-1" d="M239.61,94.96c1.34-5.37,2.68-10.74,4.03-16.11,1.05-4.19,1.33-10.21-1.79-13.68s-6.07.52-6.84,3.59c-1.34,5.37-2.68,10.74-4.03,16.11-1.05,4.19-1.33,10.21,1.79,13.68s6.07-.52,6.84-3.59h0Z"/>
          <path class="cls-1" d="M344.5,52.6l-.42-.91,1.29,9.73-.62,2.54-2.21,2.57c.46-.55,1.05-.86,1.77-.92h-2.66l.96.29c8.04,2.44,7.61-15.94,2.66-19.29-7.04-4.75-16.17-4.45-23.56-.58-8.88,4.65-13.86,13.83-14.55,23.62-.73,10.31,2.93,20.52,11.15,27,6.98,5.5,16.23,7.19,24.39,3.34,6.01-2.84,4.17-22.51-2.66-19.29-5.09,2.41-10.73,1.74-15.58-.96-2.35-1.31-4.48-3.02-6.04-5.23-.55-.78-1.2-3.66-1.39-1.97.42-3.77,6.86-7.27,10.03-8.41,5.32-1.92,10.88-1.38,15.56,1.77.89-6.43,1.77-12.86,2.66-19.29-10.65-3.23-10.57,14.2-7.84,20.13,1.74,3.78,5.23,3.37,7.07,0,2.22-4.06,1.89-10.04,0-14.14h0Z"/>
          <path class="cls-1" d="M310.64,52.2c-10.79,11.09-9.04,37.41,6.61,43.63,7.15,2.84,8.8-16.84,2.66-19.29-2.82-1.12-4.25-2.55-5.8-5.04-.98-1.57.34-.94-.13-.16-.14.23,1.5-1.67,1.71-1.88,3.12-3.2,2.98-9.72,1.79-13.68-.95-3.16-3.68-6.83-6.84-3.59h0Z"/>
          <path class="cls-1" d="M322.55,81.91c1.21-4.92,2.43-9.83,3.64-14.75,1.04-4.2,1.33-10.21-1.79-13.68s-6.08.52-6.84,3.59l-3.64,14.75c-1.04,4.2-1.33,10.21,1.79,13.68s6.08-.52,6.84-3.59h0Z"/>
          <path class="cls-1" d="M338.2,48.95l-1.34-.89c-.66-.42-1.33-.48-1.99-.18-.77.11-1.39.5-1.86,1.19-.65.77-1.11,1.63-1.4,2.58-.48,1.08-.78,2.21-.89,3.4l-.18,2.66c0,1.72.22,3.4.68,5.05l.78,2.02c.48,1.08,1.22,1.94,2.21,2.57l1.34.89c.66.42,1.33.48,1.99.18.77-.11,1.39-.5,1.86-1.19.65-.77,1.11-1.63,1.4-2.58.48-1.08.78-2.21.89-3.4l.18-2.66c0-1.72-.22-3.4-.68-5.05l-.78-2.02c-.48-1.08-1.22-1.94-2.21-2.57h0Z"/>
          <path class="cls-1" d="M362.67,50c-4.82,18-2.92,38.06,7.14,54,4.66,7.38,8.61-2.22,8.54-7.07-.19-12.83-.39-25.66-.58-38.49l-9.82,2.66c.59,4.94,1.18,9.88,1.78,14.82l9.64-5.32c.32,2.05-.91,1.77.08,1.29,1.07-.52,2.08-2.32,3.22-3.06,2.61-1.69,5.19-1.9,8.18-1.32,6.15,1.18,7.28-18.6,0-20-15.65-3-23.08,15.92-21.13,28.41.45,2.86,2.15,8.67,6.15,6.98s3.87-9.12,3.49-12.3c-.59-4.94-1.18-9.88-1.78-14.82-.32-2.65-1.88-7.99-5.49-7.16s-4.38,7-4.34,9.82c.19,12.83.39,25.66.58,38.49l8.54-7.07c-5.72-9.07-8.4-19.22-5.57-29.76,1.07-3.99,1.41-10.47-1.79-13.68s-5.97.35-6.84,3.59h0Z"/>
          <path class="cls-1" d="M432.39,67.76c3.69,5.75,7.38,11.51,11.07,17.26,1.82,2.83,4.34,4.09,6.57.78s2.67-9.15,1.29-12.9c-1.98-5.39-3.97-10.78-5.95-16.16-2.28,4.56-4.56,9.12-6.84,13.68,4.87,6.73,7.64,14.47,7.58,22.8,2.85-2.36,5.69-4.71,8.54-7.07-3.35-6.81-10.34-8.7-17.3-6.42-6.46,2.12-13.51,9.23-20.41,4.43-1.51-1.05-3.32-3.03-3.78-4.76-.86-3.21.05-.72.02-.63.4-1.19,1.54-2.42,2.36-3.34,5.08-5.63,12.97-7.97,20.29-8.66,7.15-.67,6.66-20.63,0-20-9.59.91-19.41,4.35-25.78,11.92-7.1,8.44-8.54,20.39-5.46,30.78,2.32,7.82,8.45,16.22,17.39,16.34,5.39.07,10.08-3.15,14.73-5.41,2.32-1.12,9.2-3.5,10.87-.11,1.11,2.26,3.19,3.76,5.46,2.07,2.52-1.88,3.05-6.3,3.07-9.14.1-14.49-4.03-28.31-12.54-40.07-2.04-2.82-4.87-.62-6.06,1.56-1.81,3.32-2.08,8.6-.78,12.12l5.95,16.16,7.85-12.12c-3.69-5.75-7.38-11.51-11.07-17.26-2.13-3.32-5.02-3.75-7.07,0s-2.31,10.54,0,14.14h0Z"/>
          <path class="cls-1" d="M437.7,73.27c.08,5.41-1.22,13.62,2.61,17.97,2.45,2.78,6.41,3.17,9.66,1.68,9.02-4.16,10.5-19.47,4.74-26.65-4.56-5.69-12.71-3.56-16.19,2.15-6.82,11.19,1.61,23.56,6.39,33.74,1.73,3.69,5.28,3.46,7.07,0,2.13-4.12,1.95-9.99,0-14.14-1.72-3.67-3.44-7.34-5.17-11.01-.49-1.05-.98-2.1-1.48-3.15-2.86,9.8-2.97,13.07-.31,9.79.57-.23,1.11-.61,1.74-.75.66-.15,1.31-.04,1.98-.07.53-.02.77.1.69.36,2.17-9.99,1.94-13.48-.7-10.45-1.95.72-2.53,1.82-4.56.22l3.67,9.64-.13-9.34c-.04-3-.82-9.88-5-10s-5.04,7.38-5,10h0Z"/>
          <path class="cls-1" d="M421.35,83.55c-1.7-5.29-3.39-10.58-5.09-15.88-.98-3.06-3.72-6.83-6.84-3.59s-2.78,9.69-1.79,13.68c1.28,5.2,2.57,10.4,3.85,15.6.6,2.44,2.68,5.93,5.65,4.6,3.16-1.42,3.53-6.8,3.67-9.64.33-6.59.65-13.17.98-19.76.13-2.69-.68-8.31-3.67-9.64s-5,2.18-5.65,4.6c-3.17,11.8-1.45,26.18,7.78,34.95,6.59,6.27,9.66-12.88,5.05-17.27-1.8-1.71-2.92-3.26-4.01-5.47-.62-1.27-.44-1.17-.18-2.11l-9.32-5.05c-.33,6.59-.65,13.17-.98,19.76l9.32-5.05c-1.28-5.2-2.57-10.4-3.85-15.6l-8.63,10.09c1.7,5.29,3.39,10.58,5.09,15.88.98,3.06,3.72,6.83,6.84,3.59,3.12-3.24,3.02-9.86,1.79-13.68h0Z"/>
          <path class="cls-1" d="M405.08,77.04c-2.98,4.98-3.17,12.18-1.56,17.63,1.13,3.83,3.3,7.9,7.16,9.56s5.82-4.12,6.15-6.98c.3-2.53.3-5.27-.5-7.71-.53-1.59-1.31-3.87-2.99-4.6-.48-.21-1.73-1.13-.89-.32-.07-.06-.7-.67-.67-.73-.02.04.66,1.54.1.08-.22-.57.43,1.33.48,1.56.23,1.06.25,2.13.16,3.2-.08.99-.3,1.86-.62,2.79-.44,1.28.09-.07.25-.33,2.24-3.75,2.12-10.37,0-14.14-.75-1.33-1.8-2.93-3.54-2.93s-2.77,1.65-3.54,2.93h.01Z"/>
          <path class="cls-1" d="M497.74,15.96c-6.34-5.84-15.53-7.29-22.41-1.37-7.89,6.78-8.9,18.78-6.43,28.25.87,3.36,3.63,6.56,6.84,3.59,5.05-4.68,10.11-9.36,15.16-14.03,2.92-2.71,2.83-9.03,2.05-12.49-.42-1.84-2.78-8.33-5.9-5.79-12.89,10.47-16.52,27.79-12.45,43.49l4.32-15.05c-3.52-.67-7.04-1.33-10.55-2-2.71-.51-4.24,4.57-4.57,6.15-.73,3.46-.66,7.72,1.03,10.92,6.79,12.87,10.98,26.9,11.52,41.49.11,2.93.49,7.22,3.07,9.14,2.18,1.62,4.4.29,5.46-2.07,8.7-19.33,8.68-41.67-.12-60.97-1.73-3.79-5.24-3.36-7.07,0-2.22,4.07-1.88,10.03,0,14.14,4.82,10.57,4.89,22.07.12,32.68,2.85,2.36,5.69,4.71,8.54,7.07-.72-19.46-5.34-38.37-14.45-55.64l-3.54,17.07c3.52.67,7.04,1.33,10.55,2,2.33.44,3.86-3.42,4.32-4.95.99-3.27.85-6.82,0-10.09-1.36-5.25,2.56-10.93,6.47-14.11-1.28-6.09-2.57-12.18-3.85-18.28-5.05,4.68-10.11,9.36-15.16,14.03l6.84,3.59c.56,2.17-.73,1.98.9.97,1.54-.96,2.42-2.21,4.34-2.74,3.31-.91,7.39-.09,9.93,2.25,6.72,6.19,9.73-12.96,5.05-17.27h0v.02Z"/>
          <path class="cls-1" d="M476.86,9.23c-10.58,5.56-13.31,21.09-9.41,31.52,1.06,2.84,3.73,7.05,6.84,3.59,2.83-3.15,3.22-9.87,1.79-13.68-.67-1.78-.31-1.85-.23.03.04.56-.02,1.12-.17,1.66.29-.97.34-1.1.14-.39,1.04-1.24,1.8-2.45,3.69-3.44,5.93-3.11,3.89-22.73-2.66-19.29h0Z"/>
          <path class="cls-1" d="M493.3,30.54l3.84,2.33c1.37.83,2.92.03,3.85-1.01,1.34-1.48,2.07-4.07,2.3-5.98.3-2.53.3-5.27-.5-7.71-.58-1.75-1.33-3.59-2.99-4.6l-3.84-2.33c-1.37-.83-2.92-.03-3.85,1.01-1.34,1.48-2.07,4.07-2.3,5.98-.3,2.53-.3,5.27.5,7.71.58,1.75,1.33,3.59,2.99,4.6h0Z"/>
          <path class="cls-1" d="M467.36,44.67l-3.6-.71c-1.51-.3-3.02,1.95-3.54,2.93-1.05,2.02-1.51,4.82-1.46,7.07s.29,4.98,1.46,7.07l1.01,1.56c.64.83,1.48,1.29,2.52,1.37l3.6.71c1.51.3,3.02-1.95,3.54-2.93,1.05-2.02,1.51-4.82,1.46-7.07s-.29-4.98-1.46-7.07l-1.01-1.56c-.64-.83-1.48-1.29-2.52-1.37h0Z"/>
          <path class="cls-1" d="M487.64,66.15l5.9-1.54c.79,0,1.43-.3,1.93-.86.73-.52,1.27-1.21,1.61-2.07,1.05-2.02,1.51-4.82,1.46-7.07s-.29-4.98-1.46-7.07c-.61-1.09-1.97-3.34-3.54-2.93l-5.9,1.54c-.79,0-1.43.3-1.93.86-.73.52-1.27,1.21-1.61,2.07-1.05,2.02-1.51,4.82-1.46,7.07s.29,4.98,1.46,7.07c.61,1.09,1.97,3.34,3.54,2.93h0Z"/>
          <path class="cls-1" d="M471.14,76.12c-1.53,10.03-.03,20.96,5.51,29.6.73,1.14,1.84,3.05,3.54,2.93,13.01-.95,15.01-19.97,10.16-29.08-1.88-3.53-5.21-3.6-7.07,0-2.04,3.95-2.11,10.18,0,14.14-.33-.62.36-5.7-.17-6.03-.63-.39,1.14-.39-.28-.07-.91.21-1.5.95-2.64,1.03l3.54,2.93c-2.17-3.38-3.5-6.48-2.94-10.15.52-3.43.32-10.55-3.49-12.3s-5.75,4.36-6.15,6.98h0v.02Z"/>
          <path class="cls-1" d="M529.39,17.86c.99,3.74,1.98,7.47,2.98,11.21.59,2.21,2.27,5.39,4.98,4.77s3.79-4.82,4.16-7.16c.45-2.81.89-5.63,1.34-8.44-2.45,1.99-4.9,3.98-7.34,5.98,2.13,2.87,3.84,6.3,3.43,9.95l8.36-4.41c-1.78-2.82-3.56-5.63-5.34-8.45-4.68-7.4-8.56,2.24-8.54,7.07.12,22.68.23,45.35.35,68.03.01,2.74.59,8.27,3.67,9.64s4.85-2.24,5.65-4.6c7.55-22.35,8.22-46.21,2.93-69.13-.76-3.31-3.8-6.58-6.84-3.59-3.25,3.19-2.7,9.75-1.79,13.68,3.78,16.36,2.42,33.1-2.93,48.94l9.32,5.05c-.12-22.68-.23-45.35-.35-68.03-2.85,2.36-5.69,4.71-8.54,7.07,1.78,2.82,3.56,5.63,5.34,8.45,3.76,5.96,7.79.61,8.36-4.41,1.31-11.66-.96-23.03-8.03-32.53-3.73-5.02-6.95,3.5-7.34,5.98-.45,2.81-.89,5.63-1.34,8.44,3.05-.8,6.09-1.59,9.14-2.39-.99-3.74-1.98-7.47-2.98-11.21-.86-3.25-3.74-6.64-6.84-3.59s-2.82,9.83-1.79,13.68h-.02Z"/>
          <path class="cls-1" d="M531.85,41.99l-1.48,6.98c-.87,4.11-1.29,9.25,1.29,12.9,2.05,2.91,4.95,2.53,6.57-.78,2.51-5.12,2.77-12.37-.42-17.3-1.83-2.82-5.58-5.36-8.72-2.83-4.14,3.33-4.25,9.97-2.99,14.69,3.87,14.53,7.75,29.06,11.62,43.59.59,2.21,2.27,5.4,4.98,4.77s3.96-4.85,4.16-7.16c1.55-18.31,3.1-36.62,4.65-54.92.3-3.51.47-10.48-3.49-12.3s-5.92,4.3-6.15,6.98c-1.55,18.31-3.1,36.62-4.65,54.92,3.05-.8,6.09-1.59,9.14-2.39-3.87-14.53-7.75-29.06-11.62-43.59l-2.99,14.69c1.93-1.55-1.72,2.36-1.67-7l1.46-7.07-.38.78,7.85,12.12,1.48-6.98c.87-4.1,1.52-10.37-1.79-13.68-3.03-3.03-6.13.25-6.84,3.59h-.01Z"/>
          <path class="cls-1" d="M528.21,84.64c.61,3.96,1.22,7.93,1.83,11.89.4,2.61,2.26,8.97,6.15,6.98s4.02-8.89,3.49-12.3c-.61-3.96-1.22-7.93-1.83-11.89-.4-2.61-2.26-8.97-6.15-6.98s-4.02,8.89-3.49,12.3h0Z"/>
          <path class="cls-1" d="M208.42,48.48c-6.5,14.34-6.5,30.49-.32,44.92,1.4,3.27,4.6,3.7,6.57.78,2.48-3.7,2.21-8.77,1.29-12.9-1.12-5.01-2.25-10.03-3.37-15.04-.43-1.92-1.96-4.95-4.32-4.95-2.52,0-3.66,3.06-4.32,4.95-3.57,10.28-2.05,23.12,5.36,31.36,2.3,2.56,4.67.83,6.06-1.56,6.26-10.81,7.05-23.47,4.34-35.45-.75-3.32-3.8-6.57-6.84-3.59-3.26,3.2-2.69,9.74-1.79,13.68s-.81,7.82-2.77,11.21l6.06-1.56c-.8-.89-1.98-2.27-2.22-3.17-.06-.22-.55,2.02.44-.83h-8.63c1.12,5.01,2.25,10.03,3.37,15.04l7.85-12.12c-2.39-5.57-2.16-11.16.32-16.64,1.89-4.17,2.24-10.01,0-14.14-1.84-3.39-5.31-3.89-7.07,0h0Z"/>
          <path class="cls-1" d="M139.08,46.74c-10.81,11.02-13.32,28.41-8.95,42.83.73,2.4,2.61,5.96,5.65,4.6s3.7-6.85,3.67-9.64c-.07-6.33-.14-12.65-.21-18.98-.02-1.44-1.94-13.29-6.33-9.64-9,7.48-10.38,24.5-1.91,33.05.97.98,2.46,1.88,3.85,1.01,12.61-7.9,17.53-24.07,14.81-38.27-.54-2.82-2.09-8.69-6.15-6.98s-3.74,9.08-3.49,12.3c.56,7.44,1.13,14.87,1.69,22.31.18,2.38,1.5,6.56,4.16,7.16,2.85.65,4.18-2.64,4.98-4.77,1.39-3.7,2.78-7.4,4.17-11.1h-8.63c2.77,7.28,5.55,14.56,8.32,21.84.82,2.15,2.09,5.44,4.98,4.77,2.72-.62,3.92-4.84,4.16-7.16.71-6.96,1.43-13.92,2.14-20.88-3.05.8-6.09,1.59-9.14,2.39,1.59,5.9,3.19,11.79,4.78,17.69,1.59,5.9,7.02,6.11,8.63,0,1.93-7.3,3.86-14.59,5.79-21.89l-9.32-5.05c.73,13.34,4.44,25.55,12.21,36.5,4.32,6.08,7.57-6.1,7.52-8.63-.21-10.85-.42-21.69-.63-32.54-.05-2.52-1.41-12.15-6.33-9.64l-16.48,8.41c-5.95,3.04-3.97,22.67,2.66,19.29l16.48-8.41-6.33-9.64c.21,10.85.42,21.69.63,32.54l7.52-8.63c-3.96-5.58-6.88-12.33-7.26-19.23-.15-2.78-.51-8.23-3.67-9.64-2.97-1.32-5.01,2.17-5.65,4.6-1.93,7.3-3.86,14.59-5.79,21.89h8.63c-1.59-5.9-3.19-11.79-4.78-17.69-.6-2.21-2.26-5.4-4.98-4.77s-3.92,4.84-4.16,7.16c-.71,6.96-1.43,13.92-2.14,20.88,3.05-.8,6.09-1.59,9.14-2.39-2.77-7.28-5.55-14.56-8.32-21.84-2.29-6.01-6.36-6.06-8.63,0-1.39,3.7-2.78,7.4-4.17,11.1,3.05.8,6.09,1.59,9.14,2.39-.56-7.44-1.13-14.87-1.69-22.31l-9.64,5.32c1.1,5.75-3.11,10.71-7.82,13.67l3.85,1.01c-1.31-1.32-.75-.42-.77,1.68-.03,2.55-.58,2.55.29,1.82l-6.33-9.64c.07,6.33.14,12.65.21,18.98l9.32-5.05c-1.81-5.98,1.18-11.2,5.36-15.46,3.12-3.19,2.98-9.74,1.79-13.68-.95-3.17-3.67-6.82-6.84-3.59h0v-.05Z"/>
          <path class="cls-1" d="M171.22,95.35l2.4,1.2c1.45.73,2.83.12,3.85-1.01.65-.77,1.11-1.63,1.4-2.58.48-1.08.78-2.21.89-3.4.3-2.53.3-5.27-.5-7.71-.55-1.66-1.31-3.76-2.99-4.6l-2.4-1.2c-1.45-.73-2.83-.12-3.85,1.01-.65.77-1.11,1.63-1.4,2.58-.48,1.08-.78,2.21-.89,3.4-.3,2.53-.3,5.27.5,7.71.55,1.66,1.31,3.76,2.99,4.6h0Z"/>
          <path class="cls-1" d="M155.04,74.38l1.8,1.2c.66.42,1.33.48,1.99.18.77-.11,1.39-.5,1.86-1.19.65-.77,1.11-1.63,1.4-2.58.48-1.08.78-2.21.89-3.4l.18-2.66c0-1.72-.22-3.4-.68-5.05l-.78-2.02c-.48-1.08-1.22-1.94-2.21-2.57l-1.8-1.2c-.66-.42-1.33-.48-1.99-.18-.77.11-1.39.5-1.86,1.19-.65.77-1.11,1.63-1.4,2.58-.48,1.08-.78,2.21-.89,3.4l-.18,2.66c0,1.72.22,3.4.68,5.05l.78,2.02c.48,1.08,1.22,1.94,2.21,2.57h0Z"/>
          <path class="cls-1" d="M142.72,89.85l3.29-3.29c.65-.77,1.11-1.63,1.4-2.58.48-1.08.78-2.21.89-3.4.21-1.33.24-2.66.09-3.99-.02-1.26-.22-2.5-.59-3.72l-.78-2.02c-.48-1.08-1.22-1.94-2.21-2.57l-1.33-.36c-1.04.08-1.88.53-2.52,1.37l-3.29,3.29c-.65.77-1.11,1.63-1.4,2.58-.48,1.08-.78,2.21-.89,3.4-.21,1.33-.24,2.66-.09,3.99.02,1.26.22,2.5.59,3.72l.78,2.02c.48,1.08,1.22,1.94,2.21,2.57l1.33.36c1.04-.08,1.88-.53,2.52-1.37h0Z"/>
          <path class="cls-1" d="M180.73,64.44l-.3,11.08c-.08,2.91.91,10,5,10s4.93-7.27,5-10l.3-11.08c.08-2.91-.91-10-5-10s-4.93,7.27-5,10h0Z"/>
          <path class="cls-1" d="M83.51,41.78c-25.48,7.69-22.06,59.21,7.83,55.55,14.5-1.78,22.34-14.66,21.7-28.57s-11.33-29.98-27.06-27.6c-7.21,1.09-6.4,20.97,0,20,4.04-.61,7.65.04,11.11,2.26,1.77,1.13,3.38,2.64,4.57,4.38.4.58.7,1.2,1.04,1.81.39.71.18,2.44.5,1.04.38-1.66-.62.47-.69.55-.89.92-1.61,1.89-2.63,2.67-2.76,2.12-6.21,3.32-9.66,3.56-5.36.38-11.94-1.93-13.61-6.59.38,1.06.04-.89-.05-.47-.19.9.42-1.53.16-.72.38-1.18.85-2.25,1.56-3.28,1.91-2.77,4.73-4.36,7.9-5.32,6.08-1.83,4.98-21.59-2.66-19.29h0v.02Z"/>
          <path class="cls-1" d="M98.21,67.43v8.96c0,2.29.39,5,1.46,7.07.66,1.27,1.89,2.93,3.54,2.93,4.12,0,5-7.27,5-10v-8.96c0-2.29-.39-5-1.46-7.07-.66-1.27-1.89-2.93-3.54-2.93-4.12,0-5,7.27-5,10h0Z"/>
          <path class="cls-1" d="M73.82,62.17l-1.44,9.54c-.37,2.44-.21,5.33.5,7.71.46,1.54,1.42,3.8,2.99,4.6,3.92,2,5.78-4.51,6.15-6.98l1.44-9.54c.37-2.44.21-5.33-.5-7.71-.46-1.54-1.42-3.8-2.99-4.6-3.92-2-5.78,4.51-6.15,6.98h0Z"/>
          <path class="cls-1" d="M52.11,46.81c-13.27-14.72-37.82-6.73-43.19,11.34-3.34,11.22-.93,24.75,7.54,33.17,7.38,7.33,17.91,10.69,27.7,6.29,6.03-2.71,4.29-22.41-2.66-19.29-6.14,2.76-13.09,1.16-18.32-2.84-2.04-1.56-5-4.31-5.58-6.97-.1-.48-.16-.11-.16.16,0-.4.53-1.37.87-1.9,5.71-9.02,21.66-10.56,28.76-2.69,3.02,3.35,5.94-.6,6.84-3.59,1.2-3.99,1.22-10.34-1.79-13.68h0Z"/>
          <path class="cls-1" d="M27.69,83.31c-4.52-3.09-9.05-6.18-13.57-9.27-3.61-2.47-5.89,4.75-6.15,6.98-.47,3.99-.21,9.77,3.49,12.3,4.52,3.09,9.05,6.18,13.57,9.27,3.61,2.47,5.89-4.75,6.15-6.98.47-3.99.21-9.77-3.49-12.3h0Z"/>
          <path class="cls-1" d="M16.03,73.09c-.78-.58-1.21-1.41-1.89-2.04-.51-.47-.74-.76-.29-.54.34.16-.25,1.35-.08,1.49-.24-.2,1.04-1.5,1.27-1.76,3.02-3.37,3.02-9.6,1.79-13.68-.9-3-3.78-7-6.84-3.59-9.47,10.56-8.18,30.9,3.38,39.4,3.57,2.62,5.86-4.89,6.15-6.98.57-4.08.11-9.65-3.49-12.3h0Z"/>
          <path class="cls-1" d="M28.78,71.62c-2.49-1.22-4.02-2.96-4.81-5.1.46,1.25-.75,1.34.2.25.55-.63,1.19-1.68,1.98-2.29,3.56-2.73,4.08-8.14,3.49-12.3-.27-1.95-2.61-9.69-6.15-6.98-13.2,10.11-13.38,37.87,2.63,45.7,6.68,3.27,8.71-16.33,2.66-19.29h0Z"/>
          <path class="cls-1" d="M25.66,74.12l4.54-10.97c1.75-4.23,2.34-9.98,0-14.14-.75-1.33-1.8-2.93-3.54-2.93-1.59,0-2.99,1.6-3.54,2.93l-4.54,10.97c-1.75,4.23-2.34,9.98,0,14.14.75,1.33,1.8,2.93,3.54,2.93,1.59,0,2.99-1.6,3.54-2.93h0Z"/>
          <path class="cls-1" d="M33.62,64.37l12.54,1.98c1.54.24,3-1.89,3.54-2.93,1.05-2.02,1.51-4.82,1.46-7.07-.08-3.39-.78-9.33-5-10l-12.54-1.98c-1.54-.24-3,1.89-3.54,2.93-1.05,2.02-1.51,4.82-1.46,7.07.08,3.39.78,9.33,5,10h0Z"/>
          <path class="cls-1" d="M30.77,94.25l3.32.79c.79,0,1.43-.3,1.93-.86.73-.52,1.27-1.21,1.61-2.07,1.05-2.02,1.51-4.82,1.46-7.07s-.29-4.98-1.46-7.07l-1.01-1.56c-.64-.83-1.48-1.29-2.52-1.37l-3.32-.79c-.79,0-1.43.3-1.93.86-.73.52-1.27,1.21-1.61,2.07-1.05,2.02-1.51,4.82-1.46,7.07s.29,4.98,1.46,7.07l1.01,1.56c.64.83,1.48,1.29,2.52,1.37h0Z"/>
          <path class="cls-1" d="M498.84,58.46l3.41-1.22c1.64-.59,2.91-1.5,4.03-2.85s2.23-3.42,2.5-5.23c.2-1.37.36-3.19-.61-4.33-.82-.97-2.1-1.54-3.38-1.08l-3.41,1.22c-1.64.59-2.91,1.5-4.03,2.85s-2.23,3.42-2.5,5.23c-.2,1.37-.36,3.19.61,4.33.82.97,2.1,1.54,3.38,1.08h0Z"/>
          <path class="cls-1" d="M532.03,45.04l-.85-2.12c-.13-.68-.47-1.22-1-1.61-.41-.49-.95-.75-1.62-.78-.71-.07-1.38.07-2,.4-.77.25-1.46.67-2.06,1.24-1.43,1.29-2.66,2.95-3.28,4.78l-.5,1.78c-.22,1.05-.2,2.1.05,3.14l.85,2.12c.13.68.47,1.22,1,1.61.41.49.95.75,1.62.78.71.07,1.38-.07,2-.4.77-.25,1.46-.67,2.06-1.24,1.43-1.29,2.66-2.95,3.28-4.78l.5-1.78c.22-1.05.2-2.1-.05-3.14h0Z"/>
          <path class="cls-1" d="M527.17,42.17l-2.12-.85c-.58-.35-1.19-.45-1.82-.31-.73,0-1.4.21-2.03.62-.78.42-1.45.96-2.01,1.63-.72.67-1.31,1.44-1.78,2.31-.85,1.57-1.63,3.43-1.51,5.25l.2,1.47c.22.87.7,1.54,1.45,2.02l2.12.85c.58.35,1.19.45,1.82.31.73,0,1.4-.21,2.03-.62.78-.42,1.45-.96,2.01-1.63.72-.67,1.31-1.44,1.78-2.31.85-1.57,1.63-3.43,1.51-5.25l-.2-1.47c-.22-.87-.7-1.54-1.45-2.02h0Z"/>
          <path class="cls-1" d="M549.84,60.37l6.37-4.24c1.59-1.06,2.83-2.26,3.79-3.93.83-1.44,1.63-3.54,1.51-5.25-.08-1.26-.38-2.88-1.66-3.49s-2.73-.44-3.85.31l-6.37,4.24c-1.59,1.06-2.83,2.26-3.79,3.93-.83,1.44-1.63,3.54-1.51,5.25.08,1.26.38,2.88,1.66,3.49s2.73.44,3.85-.31h0Z"/>
          <path class="cls-1" d="M549.71,53.83l3.82.85c1.32.29,3.15-.87,4.05-1.64,1.39-1.18,2.69-3.05,3.28-4.78.51-1.5,1.01-3.36.45-4.92-.47-1.32-1.21-2.07-2.62-2.39l-3.82-.85c-1.32-.29-3.15.87-4.05,1.64-1.39,1.18-2.69,3.05-3.28,4.78-.51,1.5-1.01,3.36-.45,4.92.47,1.32,1.21,2.07,2.62,2.39h0Z"/>
        </g>
        <path class="cls-2" d="M.33,74.32c2.26,15.46,15.19,28.42,30.94,29.78,7,.61,14.75-1.28,19.34-6.95,4.33-5.34,4.21-13.81-.76-18.77-2.14-2.13-4.93-3.28-7.8-4.05-1.68-.45-15.22-3.35-10.05-6.54,1.93-1.19,9.1,3.23,11.49,3.5,3.2.36,6.16-.72,8.67-2.66,5-3.89,8.89-11.66,7.68-18.06-1.34-7.08-8.15-11.77-14.35-14.41-18.65-7.94-35.74,6.53-43.45,22.69-1.65,3.47,3.52,6.52,5.18,3.03,5.77-12.1,17.81-25.3,32.68-21.34,6.11,1.63,15.24,6.54,13.99,14.08-1.03,6.22-6.02,12.22-12.55,9.87-4.39-1.58-10.72-4.9-14.75-.58-3.36,3.61-1.42,9.75,2.15,12.4,4.66,3.46,11.24,2.21,15.87,5.51,7.66,5.44.69,14.21-5.94,15.87-15.87,3.96-30.39-10.15-32.55-24.96-.56-3.81-6.34-2.19-5.79,1.6h0Z"/>
        <path class="cls-2" d="M6.17,72.29c-.71-4.51.06-9.02,2.11-13.08,1.73-3.44-3.44-6.48-5.18-3.03-2.83,5.62-3.69,11.5-2.71,17.71.6,3.8,6.38,2.19,5.79-1.6h-.01Z"/>
        <path class="cls-2" d="M84.68,60.56c-4.42,3.11-6.68,8.66-4.64,13.88,1.93,4.94,7.64,8.11,12.86,6.97,5.68-1.23,8.89-7.76,8.16-13.27-.82-6.2-8.62-8.85-13.99-8.89-3.86-.03-3.87,5.97,0,6,2.28.02,6.91.73,7.96,3.25s-1.34,6.81-3.81,7.13c-5.63.72-7.9-6.8-3.51-9.89,3.13-2.21.14-7.41-3.03-5.18h0Z"/>
        <path class="cls-2" d="M81.63,37.97c-11.49,5.04-19.87,15.78-21.37,28.32s3.84,26.5,15.1,33.14c10.44,6.16,28.13,3.25,35.75-6.4s9.88-27.87,4.25-39.15c-5.99-12-19.86-18.38-32.85-15.98-3.79.7-2.19,6.48,1.6,5.79,11.47-2.12,23.81,5.04,27.26,16.29,2.27,7.42.79,15.88-1.7,23.05-2.64,7.6-8.05,10.68-15.56,12.68-14.79,3.94-26.36-7.42-27.93-21.74-1.48-13.47,6.3-25.48,18.49-30.82,3.53-1.55.48-6.72-3.03-5.18h-.01Z"/>
        <path class="cls-2" d="M133.53,45.08c-10.84,12.35-18.65,33.3-7.28,48.1,4.17,5.43,11.26,3.56,16-.08,1.26-.97,2.24-2.13,3.36-3.23.4-.39,1.94-2.23,2.53-2.09.05,0,1.15,2.09,1.45,2.62,1.76,3.07,2.26,7.54,5.7,9.28,2.47,1.25,5.67.71,7.92-.71,1.43-.9,2.41-2.44,3.82-3.33,2.78-1.75,3.97-.47,5.89,1.62,3.89,4.25,10.02,7.28,14.39,1.72,2.48-3.16,3.19-6.99,3.79-10.84.85-5.45,1.42-10.95,1.52-16.47.13-7.3.01-16.35-4.69-22.44-5.25-6.8-13.39-3.52-19.28.63-2.04,1.43-3.96,3.02-6.05,4.39-2.29,1.51-3.92,2.86-5.86.25-2.5-3.39-3.43-7.48-6.43-10.58-2.69-2.78-6.93,1.47-4.24,4.24,3.92,4.06,4.42,10.2,9.46,13.45s11.61-3.32,15.53-6.14c2.37-1.71,6.61-5,9.8-4.29,2.77.62,3.91,4.42,4.56,6.78,2.1,7.57,1.38,16.18.52,23.88-.38,3.43-.41,9.94-2.92,12.73-2.98,3.32-5.28-1.16-7.31-3.15-3.68-3.6-7.83-4-11.97-.84-1.13.86-2.25,2.57-3.59,3.08-2.32.87-3.1-1.26-3.96-3.24-1.15-2.66-2.42-5.29-4.72-7.16-4.88-3.96-8.51,1.13-11.88,4.26-1.36,1.26-3.21,2.57-5.08,2.94-2.56.52-3.4-.73-4.54-2.79-2.31-4.2-3.3-9.15-3.11-13.92.37-9.19,4.94-17.66,10.9-24.45,2.54-2.89-1.69-7.15-4.24-4.24h0v.02Z"/>
        <path class="cls-2" d="M210.75,44.27c-11.49,3.33-12.53,16.93-13.21,26.99-.44,6.52-.04,13.18,2.4,19.3,1.69,4.25,4.95,10.05,9.61,11.59,11.08,3.66,13.77-15.27,14.01-22.08.42-12.11-.37-24.91-6.6-35.6-1.94-3.34-7.13-.32-5.18,3.03,4.19,7.19,5.43,15.23,5.74,23.44.15,3.87.23,7.8-.08,11.66-.26,3.28-.99,10.84-4.15,12.93-4.27,2.82-7.94-7.26-8.63-9.64-1.21-4.17-1.41-8.54-1.22-12.86.33-7.27.25-20.47,8.91-22.98,3.7-1.07,2.13-6.86-1.6-5.79h0Z"/>
        <path class="cls-2" d="M335.87,71.18c6.57,2.61,14.06.2,16.68-6.71,2.75-7.26-1.06-15.25-6.82-19.83-13.05-10.4-32.66-2.47-41.32,9.88-9.68,13.81-4.71,32.95,7.34,43.61,9.1,8.05,26.4,14.18,35.75,3.19,4.71-5.53,5.62-13.92.98-19.79-2.25-2.85-5.41-4.36-8.98-4.77-4.12-.47-10.17,1.19-12.43-3.27-1.75-3.45-6.92-.41-5.18,3.03,2.65,5.22,7.74,5.99,13.11,6.08,3.67.06,7.27-.05,9.41,3.53,1.76,2.94,1.45,6.62-.2,9.52-7.64,13.41-27.44.98-33.37-7.51-9.55-13.69-6.21-31.08,8.74-39.07,6.94-3.71,15.98-4.88,22.49.33,3.38,2.71,6.33,7.39,5.22,11.91-1.21,4.9-5.65,5.74-9.81,4.09-3.59-1.43-5.15,4.38-1.6,5.79h0Z"/>
        <path class="cls-2" d="M328.39,63.44c-6.41,2.01-9.79,10.31-5.01,15.58,2.6,2.87,6.83-1.39,4.24-4.24-1.66-1.83.4-4.94,2.36-5.55,3.67-1.15,2.1-6.94-1.6-5.79h.01Z"/>
        <path class="cls-2" d="M356.76,57.11c-1.71,15.14-3.47,35.31,7.07,48,3.94,4.74,9.89,6.88,15.12,2.76,5.78-4.57,6.2-12.31,5.55-19.07-.37-3.84-1.13-7.86-.49-11.72.83-5.02,3.69-6.56,7.91-8.45,5.37-2.41,8.81-7.36,7.78-13.45s-5.95-9.86-11.71-10.47c-3.86-.41-6.85,1.39-10.53,1.63-4.34.29-6.94-3.53-11.34-3.22-3.83.27-3.86,6.27,0,6,2.76-.2,4.65,2.22,7.18,2.94s4.89.26,7.4-.38c2.9-.74,5.6-1.62,8.57-.58,3.31,1.16,5.4,4.54,4.33,8.04-1.4,4.63-8.06,4.87-11.23,7.97-3.35,3.28-4.5,8.24-4.56,12.78-.07,5.19,1.38,10.37.9,15.57-.36,3.94-2.31,9.18-6.94,8.01-3.16-.8-4.88-4.06-6.18-6.86-5.63-12.16-4.31-26.6-2.84-39.5.43-3.83-5.57-3.8-6,0h.01Z"/>
        <path class="cls-2" d="M424.03,43.39c-13.76,3.14-22.15,16.51-25.11,29.52-2.76,12.09-.81,32.72,14.46,35.63,6.89,1.31,12.66-2.99,19.01-4.73,4.71-1.29,8.08.51,12.19,2.62,2.58,1.33,5.43,2.87,8.39,1.99,6.19-1.84,7.78-11.1,7.95-16.54.26-8-1.53-16.64-4.15-24.15-5.2-14.95-19.13-28.88-36.19-23.8-3.69,1.1-2.12,6.89,1.6,5.79,17.61-5.25,27.93,13.49,31.04,27.73.86,3.95,1.58,8.01,1.7,12.06.09,3.28.21,8.74-2.18,11.3-2.91,3.12-7.46-1-10.6-2.28-2.81-1.14-5.52-1.51-8.53-1.09-5.95.83-11.36,5.45-17.41,5.38-9.25-.11-12.53-12.26-12.53-19.64,0-13.64,7.5-30.71,21.94-34.01,3.76-.86,2.17-6.64-1.6-5.79h.02Z"/>
        <path class="cls-2" d="M429.85,64.45c-4.96-3.13-8.52,2.05-9.91,6.23-1.63,4.91-1.05,11.07,3.5,14.26,4.04,2.83,9.92,1.79,12.14-2.78,2.42-4.97-.16-11.17-2.42-15.69-1.73-3.45-6.9-.42-5.18,3.03.77,1.53,5.36,12.66-.31,10.94-2.04-.62-2.66-3.12-2.61-4.98.02-.59,1.46-6.02,1.76-5.83,3.28,2.07,6.29-3.12,3.03-5.18h0Z"/>
        <path class="cls-2" d="M468.39,66.32l-.68,18.41c-.19,5.09-.65,10.36.53,15.38,1.71,7.27,7.79,12.62,15.53,11.12,8.22-1.6,13.27-8.86,14.11-16.85.58-5.51-.6-10.9-1.94-16.21-1.79-7.07-3.22-14.31,4.82-17.74,3.51-1.49,7.06-2.69,9.31-6.03,2.04-3.02,2.39-7.05-.15-9.91-2.13-2.4-5.48-2.97-8.53-2.76-1.96.13-3.77.71-5.67,1.12-.8.17-2.09.58-2.94.48-4.17-.53-4.22-3.55-.62-5.29,4.04-1.95,8.35-1.01,11.71-4.6,2.56-2.73,3.68-6.72,3.29-10.39-.92-8.57-9.31-13.62-17.11-14.8-10.51-1.59-21.5.03-26.35,10.46-4.17,8.96-4.82,21.07,4.74,26.71l.72-5.48c-6.56,1.68-14.82,4.97-15.12,12.95-.36,9.65,9.45,13.84,17.16,16.05,3.72,1.07,5.31-4.72,1.6-5.79-4.55-1.31-14.27-4.12-12.65-10.87,1.03-4.3,6.97-5.63,10.61-6.56,2.52-.65,2.91-4.19.72-5.48-7.89-4.65-5.06-18.46.95-23.73s20.41-3.5,25.72,1.62c2.77,2.67,4.22,6.89,1.94,10.34s-7.18,2.58-10.64,4.17c-4.6,2.11-7.94,7.39-5.43,12.35s8.15,4.73,12.67,3.79c1.56-.33,3.09-.91,4.69-1.04,3.11-.26,5.15,2.08,2.06,4.83-2.5,2.22-6.47,2.59-9.24,4.54-14.53,10.29,3.41,29.82-4.12,42.79-1.87,3.23-5.73,5.91-9.59,5.59-5.19-.44-6.62-6.06-6.94-10.32-.72-9.48.47-19.36.83-28.85.14-3.86-5.86-3.86-6,0h.01Z"/>
        <path class="cls-2" d="M527.2,64.51c.86,13.98-6.53,33.92,9.35,42.23,6.89,3.6,13.46-4.78,15.22-10.6,2.37-7.86,1.34-15.64-.03-23.5-1.03-5.93-.89-10.03,5.07-12.67,3.49-1.55,7.63-3.25,9.18-7.1,3.02-7.52-5.06-11.66-10.46-14.3-2.47-1.21-1.98-2.6-2.21-5.43s-.23-5.65-.5-8.47c-.54-5.64-2.15-10.39-5.27-15.1-2.25-3.4-5.14-7.28-9.46-7.96s-8.28,2.13-10.42,5.6c-2.79,4.53-3.02,10.31-2.22,15.41.75,4.82,6.1,12.77.49,15.95-4.02,2.28-8.75.63-10.89,5.73-1.57,3.74-.26,8,1.98,11.16s7.42.13,5.18-3.03c-.88-1.25-2.08-3.03-1.85-4.67.31-2.24,2.35-1.99,4.15-2.4,2.85-.65,5.76-1.93,7.75-4.14,4.8-5.35,1.05-11.21-.39-17.03-1.07-4.32-1.62-10.01.98-13.95,2.35-3.55,6.72-1.61,8.69,1.12,1.37,1.89,2.73,4,3.63,6.14,1.84,4.41,1.77,9.27,2.05,13.96.17,2.9-.09,8.01,1.92,10.38,2.78,3.28,17.93,6.09,7.86,11.54-2.86,1.55-5.99,2.08-8.3,4.5-1.99,2.09-3.02,4.76-3.34,7.6-.75,6.44,2.02,12.63,1.88,19.05-.11,4.95-.27,14.42-6.1,16.48-3.23,1.14-6.15-2.66-7.41-5.43-1.47-3.22-1.64-6.91-1.59-10.4.1-6.91,1.51-13.76,1.08-20.68-.24-3.84-6.24-3.86-6,0h-.02Z"/>
        <path class="cls-2" d="M520.58,57.72c1.77.28,3.96.57,5.18,2.03,1.08,1.29,1.27,3.29,1.46,4.89s1.24,3,3,3c1.47,0,3.2-1.38,3-3-.37-3.08-.81-6.21-2.86-8.69s-5.11-3.54-8.2-4.02c-1.61-.25-3.21.41-3.69,2.1-.41,1.42.5,3.44,2.1,3.69h.01Z"/>
        <path class="cls-2" d="M244.68,54.17c-5.09-6.41-9.39-13.45-12.67-20.95-2.34-5.36-9-18.81-3.94-24.04,6.72-6.95,15.89,4.76,19.2,9.53,4.96,7.13,8.88,14.84,11.82,23.01.94,2.61,5.06,3.09,5.79,0,1.88-8.05,5.39-15.39,10.06-22.19,3.42-4.98,14.38-20.73,20.06-9.75,3.62,7-1.52,18.96-4.2,25.69-3.03,7.61-7.19,14.69-12.09,21.24-2.31,3.09,2.89,6.09,5.18,3.03,6.74-9,11.92-19.06,15.19-29.83,2.61-8.58,5.9-20.94-2.49-27.49s-17.13,1.57-22.32,8.05c-7.05,8.8-12.6,18.63-15.19,29.67h5.79c-3.92-10.89-9.37-21.47-16.89-30.35-5.37-6.34-14.75-11.6-22.63-6.1s-4.24,17.25-1.61,24.79c3.81,10.93,9.5,20.91,16.69,29.95,2.4,3.02,6.62-1.25,4.24-4.24h0v-.02Z"/>
        <path class="cls-2" d="M239.91,55.89c-4.55,7.93-8.54,16.38-11.17,25.15-2.17,7.23-2.62,16.19,4.1,21.23,14.56,10.92,25.88-16.62,31.05-25.43l-5.48-.72c2.75,8.25,7.13,15.79,13.25,22,5.31,5.38,12.91,11.16,20.22,5.7s6.21-15.14,4.54-22.73c-2.05-9.28-6.6-17.67-12.84-24.78-2.55-2.91-6.78,1.35-4.24,4.24,4.44,5.07,7.89,10.88,9.99,17.31,1.83,5.62,4.34,14.75.23,19.86-8.49,10.55-23.27-16.92-25.36-23.18-.8-2.4-4.13-3.02-5.48-.72-2.97,5.06-15.57,32.95-23.62,22.22-4.18-5.56-.67-13.61,1.49-19.35,2.32-6.17,5.22-12.06,8.5-17.77,1.93-3.35-3.26-6.38-5.18-3.03h0Z"/>
        <path class="cls-2" d="M149.21,42.75c-4.83-3.28-11.79-2.37-15.57,2.09-2.48,2.93,1.74,7.19,4.24,4.24,2.16-2.55,5.53-3.04,8.3-1.15,3.2,2.18,6.21-3.02,3.03-5.18h0Z"/>
        <path class="cls-2" d="M362.38,58.98c.52-3.77,1.04-9.26,5.48-10.37,3.74-.94,2.16-6.73-1.6-5.79-6.75,1.69-8.82,8.44-9.67,14.56-.22,1.62.39,3.2,2.1,3.69,1.4.4,3.47-.49,3.69-2.1h0Z"/>
        <path class="cls-2" d="M337.12,64.7c-2.32-1.61-5.25-2.02-7.97-1.36-1.58.38-2.51,2.16-2.1,3.69.44,1.61,2.11,2.48,3.69,2.1.42-.1,1.13-.15,1.52-.07.82.17,1.13.35,1.82.83,1.33.92,3.33.24,4.1-1.08.87-1.49.26-3.18-1.08-4.1h.02Z"/>
      </g>
    </g>
  </g>
</svg>